# xmcd
#
# Track frame offsets:
# 150
# 12203
# 23682
# 34426
# 40664
# 51373
# 63473
# 74489
# 81503
# 92196
# 101149
# 109834
# 120247
# 128693
# 136173
# 148945
# 161274
# 172227
# 183241
# 201698
# 218122
# 229506
# 236682
# 246344
# 254447
# 260005
# 262693
# 266597
# 275850
#
# Disc length: 3701 seconds
#
#
# Revision: 0
# Processed by: cddbd v1.4PL0 Copyright (c) Steve Scherf et al.
# Submitted via: FreeRIP 2.00 
#
DISCID=b80e731d
DTITLE=Waylon Jennings - Destiny's Child Disc 2
DYEAR=1999
DGENRE=Country
TTITLE0=Crying
TTITLE1=Sally Was A Good Old Girl
TTITLE2=Burning Memories
TTITLE3=Big Mamou
TTITLE4=Money (That's What I Want)
TTITLE5=Don't Think Twice, It's Alright
TTITLE6=Dream Baby
TTITLE7=It's So Easy
TTITLE8=Lorena
TTITLE9=Love's Gonna Live Here
TTITLE10=Abilene
TTITLE11=White Lightning
TTITLE12=Step Aside
TTITLE13=Memories
TTITLE14=Mental Revenge
TTITLE15=Don't Think Twice
TTITLE16=The Twelfth Of Never
TTITLE17=Kisses Sweeter Than Wine
TTITLE18=I Don't Believe You
TTITLE19=The Real House Of The Rising Sun
TTITLE20=Living Proof (with Jessi Colter) (1999)
TTITLE21=Charlie, Lay Down The Gun
TTITLE22=Wave Goodbye To Me
TTITLE23=Words Come Easy
TTITLE24=Red Velvet (1999)
TTITLE25=Sunbeam Bread Jingle (1999)
TTITLE26=Stop The World And Have A Coke
TTITLE27=Time To Bum Again
TTITLE28=Robert's Bicycle Jingle (with Ray Corbin) (1999)
EXTD=Bear Family\nBCD 16320 FK
EXTT0=
EXTT1=
EXTT2=
EXTT3=
EXTT4=
EXTT5=
EXTT6=
EXTT7=
EXTT8=
EXTT9=
EXTT10=
EXTT11=
EXTT12=
EXTT13=
EXTT14=
EXTT15=
EXTT16=
EXTT17=
EXTT18=
EXTT19=
EXTT20=
EXTT21=
EXTT22=
EXTT23=
EXTT24=
EXTT25=
EXTT26=
EXTT27=
EXTT28=
PLAYORDER=
